Coordinates
version=1
nRows=7
nColumns=42
inDegrees=yes

Units are S.I. units (second, meters, Newtons, ...)
If the header above contains a line with 'inDegrees', this indicates whether rotational values are in degrees (yes) or radians (no).

endheader
time	pelvis_tilt	pelvis_list	pelvis_rotation	pelvis_tx	pelvis_ty	pelvis_tz	hip_flexion_r	hip_adduction_r	hip_rotation_r	knee_angle_r	knee_adduction_r	knee_angle_r_beta	ankle_angle_r	subtalar_angle_r	mtp_angle_r	hip_flexion_l	hip_adduction_l	hip_rotation_l	knee_angle_l	knee_adduction_l	knee_angle_l_beta	ankle_angle_l	subtalar_angle_l	mtp_angle_l	lumbar_extension	lumbar_bending	lumbar_rotation	arm_flex_r	arm_add_r	arm_rot_r	elbow_flex_r	pro_sup_r	wrist_flex_r	wrist_dev_r	arm_flex_l	arm_add_l	arm_rot_l	elbow_flex_l	pro_sup_l	wrist_flex_l	wrist_dev_l
      0.23000000	      1.32855444	     -0.00014960	      4.26186718	     -1.93996119	      0.94044559	      0.20032012	     23.22673211	     -4.93616018	    -15.19480098	     15.81285831	      3.05405102	      0.27598644	      6.45825685	     16.50327421	     -9.50662509	    -14.02655408	     -0.10085237	     -8.74378602	     16.07514825	     -1.91062422	      0.28056426	     20.32316048	     26.58563445	     -9.50662509	     -9.42717645	      4.19020193	     -5.81040442	    -11.38761349	     -9.38530409	     -3.93150473	     20.98000068	     90.00000001	      0.00000000	      0.00000000	      8.74562664	    -23.17145260	     18.09114807	     56.39258520	     90.00000001	      0.00000000	      0.00000000
      0.24000000	      1.31890212	     -0.28201331	      4.32969649	     -1.92734045	      0.94059131	      0.20103434	     23.16320940	     -4.51190660	    -14.75922963	     16.91262261	      2.87676587	      0.29518095	      5.96168104	     16.36166243	     -9.47818680	    -14.12894792	     -0.67922410	     -8.58371116	     17.28844359	     -1.82331368	      0.30174026	     19.53424662	     26.16415385	     -9.47818680	     -9.33244115	      4.63254728	     -5.72891906	    -11.49530146	     -9.46670930	     -3.85909844	     21.01914055	     90.00000001	      0.00000000	      0.00000000	      8.32229369	    -22.99944005	     17.94719584	     56.52183433	     90.00000001	      0.00000000	      0.00000000
      0.25000000	      1.29935731	     -0.60037070	      4.39991540	     -1.91472214	      0.94103616	      0.20173312	     23.04346655	     -4.06637173	    -14.34534550	     17.86443991	      2.71779861	      0.31179330	      5.35046017	     16.04882064	     -9.45773861	    -13.99855929	     -1.30139615	     -8.56921009	     18.85424226	     -1.81562741	      0.32906861	     18.42017090	     25.70506474	     -9.45773861	     -9.24014985	      5.13908892	     -5.67174092	    -11.47010184	     -9.56292891	     -3.80855188	     21.01235295	     90.00000001	      0.00000000	      0.00000000	      7.74637813	    -22.83289879	     17.75729115	     56.68866611	     90.00000001	      0.00000000	      0.00000000
      0.26000000	      1.22006360	     -0.92589252	      4.43824577	     -1.90210232	      0.94169701	      0.20258433	     22.91804318	     -3.57872112	    -13.71462588	     18.67365923	      2.61684221	      0.32591684	      4.74126647	     15.35545693	     -9.43009613	    -13.58731171	     -1.93783104	     -8.72279439	     20.74510654	     -1.89373391	      0.36207041	     16.93603921	     25.09622719	     -9.43009613	     -9.08855987	      5.61202201	     -5.62962970	    -11.44264195	     -9.66875238	     -3.76983570	     21.03286225	     90.00000001	      0.00000000	      0.00000000	      7.04954918	    -22.61062551	     17.45507198	     56.89369954	     90.00000001	      0.00000000	      0.00000000
      0.27000000	      1.17845902	     -1.20288897	      4.41961474	     -1.88951987	      0.94267781	      0.20353426	     22.66740694	     -3.11936645	    -12.69451954	     19.35635147	      2.70155749	      0.33783206	      4.27433410	     14.18302437	     -9.39418548	    -13.04210446	     -2.55732856	     -8.85528937	     22.90241412	     -1.90025485	      0.39972253	     15.12061585	     24.47945045	     -9.39418548	     -9.00380131	      6.02772474	     -5.51744475	    -11.36475777	     -9.73980320	     -3.73817107	     21.08546506	     90.00000001	      0.00000000	      0.00000000	      6.32962456	    -22.37225898	     17.07157579	     57.00014045	     90.00000001	      0.00000000	      0.00000000
      0.28000000	      1.20847554	     -1.43240585	      4.40642793	     -1.87697353	      0.94391349	      0.20449063	     22.27475736	     -2.71222821	    -11.72795949	     19.96170326	      2.83006379	      0.34839745	      4.12450236	     13.09821317	     -9.36681380	    -12.36057302	     -3.13668744	     -8.93323798	     25.34681280	     -1.94873538	      0.44238534	     12.89236254	     23.78224380	     -9.36681380	     -9.01846100	      6.38636072	     -5.39037306	    -11.24128565	     -9.81748251	     -3.73633260	     21.16574001	     90.00000001	      0.00000000	      0.00000000	      5.66968047	    -22.12288506	     16.87657448	     56.93451818	     90.00000001	      0.00000000	      0.00000000
      0.29000000	      1.20913278	     -1.65777822	      4.28637891	     -1.86458174	      0.94542140	      0.20558653	     21.64625851	     -2.19584242	     -9.31765140	     20.06687733	      3.46347196	      0.35023308	      3.45724703	      9.18955247	     -9.24243524	    -11.50071593	     -3.70874466	     -8.82242168	     27.95811997	     -1.86747627	      0.48796125	     10.28832243	     22.67905903	     -9.24243524	     -9.03007567	      6.71565281	     -5.16602618	    -11.04257260	     -9.90263175	     -3.73711958	     21.24128688	     90.00000001	      0.00000000	      0.00000000	      4.97636947	    -21.66153432	     16.12507735	     56.71236959	     90.00000001	      0.00000000	      0.00000000
